<?xml version="1.0" encoding="UTF-8" standalone="no"?><svg xmlns="http://www.w3.org/2000/svg" xmlns:v="https://vecta.io/nano" width="290" height="64" fill="none"><style><![CDATA[.B{fill:#28bf73}.C{fill:#1d7a4a}]]></style><mask id="A" maskUnits="userSpaceOnUse" x="0" y="0" width="64" height="64" mask-type="alpha"><circle cx="32" cy="32" r="32" fill="#d9d9d9"/></mask><g mask="url(#A)"><g clip-path="url(#B)"><path d="M64.842 58.189c0 3.705-2.863 6.653-6.484 6.653H5.642c-3.621 0-6.484-3.032-6.484-6.653V5.81c0-3.621 2.863-6.653 6.484-6.653h52.8c3.537 0 6.4 3.032 6.4 6.653v52.379z" class="B"/><path d="M58.358 65.684H5.642c-4.042 0-7.326-3.368-7.326-7.495V5.81c0-4.126 3.284-7.495 7.326-7.495h52.8c3.958 0 7.242 3.368 7.242 7.495v52.295c0 4.21-3.284 7.579-7.326 7.579zM5.642 0C2.526 0 0 2.61 0 5.81v52.295C0 61.389 2.526 64 5.642 64h52.8c3.116 0 5.642-2.611 5.642-5.81V5.81C64 2.61 61.474 0 58.358 0H5.642z" class="C"/><path d="M46.316 13.221c-.421 0-.842-.168-1.179-.505-.253-.253-.421-.59-.589-.926 0-.169-.168-.253-.337-.253l-3.2.337c-.168 0-.253.168-.337.337 0 .926-.758 1.684-1.684 1.768h-.337-.168-.168c-.084 0-.084 0-.168-.084-.084 0-.084 0-.168-.084-.084 0-.084-.084-.169-.084s-.084-.084-.168-.084-.084-.084-.084-.084c-.084 0-.084-.084-.168-.084l-.084-.084-.169-.168-.084-.084c0-.084-.084-.084-.084-.168v-.084c.084-.084.084-.168.084-.253v-.084c-.084-.084-.168-.084-.253-.084l-3.116.337c-.168 0-.253.168-.337.337 0 .926-.758 1.684-1.684 1.768-.253 0-.505 0-.674-.084-.421-.084-.842-.421-1.095-.758a.91.91 0 0 1-.253-.589c0-.168-.168-.253-.337-.253l-3.284.253h-.084c-.084.084-.168.168-.168.253v.337.084c0 .084 0 .168-.084.168 0 0 0 .084-.084.084 0 .084-.084.084-.084.168l-.084.084c0 .084-.084.084-.084.168l-.084.084s-.084.084-.169.084l-.084.084c-.084 0-.084.084-.168.084s-.084.084-.168.084-.084.084-.168.084-.084 0-.169.084c-.084 0-.168.084-.337.084-.926.084-1.768-.505-2.021-1.432 0-.168-.168-.253-.337-.253l-3.116.505c-.168 0-.253.168-.337.337 0 .421-.168.758-.421 1.095s-.589.59-1.011.674c-.168 0-.253.169-.253.337l2.021 18.779 7.495-.758 14.989-1.6 7.495-.758-2.021-18.863c.084-.168 0-.337-.168-.337z" fill="#fff"/><path d="M15.158 20.379v22.4c0 .505.253 1.011.674 1.347l14.147 10.105c1.179.842 2.779.842 3.958 0l14.147-10.105c.421-.337.674-.842.674-1.347v-22.4c0-.505-.421-.842-.842-.842H16a.91.91 0 0 0-.842.842z" class="B"/><path d="M32 55.747c-.842 0-1.768-.253-2.442-.758L15.411 44.884c-.674-.505-1.095-1.263-1.095-2.021v-22.4A1.69 1.69 0 0 1 16 18.779h32a1.69 1.69 0 0 1 1.684 1.684v22.4c0 .842-.421 1.6-1.095 2.021L34.442 54.989c-.674.505-1.6.758-2.442.758zM16 20.379v22.4c0 .253.168.505.337.674l14.147 10.105c.926.674 2.105.674 3.032 0l14.147-10.105c.253-.168.337-.421.337-.674v-22.4H16z" class="C"/><path d="M15.158 25.853l3.2.674-3.2-.674z" class="B"/><path d="M18.358 27.368h-.168l-3.116-.674c-.421-.084-.758-.505-.674-1.011.084-.421.505-.758 1.011-.674.084 0 1.347.253 3.2.674.421.084.758.59.589 1.011s-.505.674-.842.674z" class="C"/><path d="M21.474 27.368l3.368 1.095-3.368-1.095z" class="B"/><path d="M24.842 29.221c-.084 0-.168 0-.253-.084l-3.369-1.01c-.421-.168-.674-.59-.589-1.011s.589-.674 1.01-.59l3.453 1.095c.421.169.674.674.505 1.095-.084.337-.421.505-.758.505z" class="C"/><path d="M48.842 25.853l-3.2.674 3.2-.674z" class="B"/><path d="M45.642 27.368c-.421 0-.758-.253-.842-.674s.168-.926.59-1.011l3.2-.674c.421-.084.926.253 1.011.674s-.253.926-.674 1.011l-3.116.674h-.168z" class="C"/><path d="M42.526 27.369l-3.368 1.095 3.368-1.095z" class="B"/><path d="M39.158 29.221a.81.81 0 0 1-.758-.59c-.169-.421.084-.926.505-1.095 1.095-.421 2.274-.758 3.453-1.095.421-.168.926.169 1.011.59.168.421-.168.926-.59 1.011l-3.368 1.011c-.084.168-.168.168-.253.168z" class="C"/><path d="M32 31.916c-1.095-.842-2.442-1.6-3.874-2.189L32 31.916z" class="B"/><path d="M32 32.758c-.168 0-.337-.084-.505-.168-1.011-.758-2.19-1.432-3.705-2.105-.421-.168-.589-.674-.421-1.095s.674-.589 1.095-.421c1.6.758 2.947 1.516 4.042 2.358a.91.91 0 0 1 .169 1.179c-.169.168-.421.253-.674.253z" class="C"/><path d="M34.19 30.568c.589-.337 1.095-.59 1.684-.842l.674-.337" class="B"/><path d="M34.19 31.41c-.337 0-.59-.168-.758-.421-.253-.421-.084-.926.337-1.179.505-.337 1.179-.59 1.768-.842l.674-.337c.421-.168.926 0 1.095.421s0 .926-.421 1.095l-.674.337c-.589.253-1.179.505-1.684.842-.084.084-.253.084-.337.084z" class="C"/><path d="M27.453 29.389c1.684.758 3.284 1.6 4.547 2.526l-4.547-2.526z" class="B"/><path d="M32 32.758c-.168 0-.337-.084-.505-.169-1.095-.842-2.611-1.684-4.379-2.442-.421-.168-.59-.674-.421-1.095s.674-.589 1.095-.421c1.937.842 3.537 1.684 4.716 2.611a.91.91 0 0 1 .169 1.179c-.169.253-.421.337-.674.337z" class="C"/><path d="M30.063 33.853c-.59.758-.926 1.684-.926 2.611A2.84 2.84 0 0 0 32 39.326a2.84 2.84 0 0 0 2.863-2.863c0-1.684-1.095-3.2-2.863-4.463" class="B"/><path d="M32 40.084a3.74 3.74 0 0 1-3.705-3.705c0-1.095.337-2.105 1.011-3.032.253-.421.758-.505 1.179-.168.421.253.505.758.168 1.179-.505.674-.758 1.347-.758 2.105a2.05 2.05 0 0 0 2.021 2.021 2.05 2.05 0 0 0 2.021-2.021c0-1.263-.842-2.61-2.526-3.789a.91.91 0 0 1-.168-1.179.91.91 0 0 1 1.179-.168c2.105 1.6 3.2 3.368 3.2 5.137.084 2.021-1.6 3.621-3.621 3.621z" class="C"/></g></g><path d="M282.733 46.298l-7.299-10.187h-3.249l9.265-11.591h5.815l-8.542 10.708.12-2.807 10.187 13.877h-6.297zm-15.24 0V17.021h5.574v29.278h-5.574zm-16.724 0V24.52h4.411v9.225h-.12c0-3.128.668-5.495 2.005-7.099s3.302-2.406 5.896-2.406h.802v4.853h-1.524c-1.872 0-3.329.508-4.372 1.524-1.016.989-1.524 2.433-1.524 4.331v11.35h-5.574zm-10.384 0v-6.457h-.922v-7.179c0-1.257-.308-2.193-.923-2.807s-1.564-.922-2.847-.922l-2.407.04-2.847.12-2.527.12V24.48l2.086-.16 2.366-.08 2.326-.04c2.246 0 4.104.294 5.575.882 1.497.588 2.62 1.511 3.369 2.767.775 1.257 1.163 2.901 1.163 4.933v13.516h-4.412zm-7.018.561c-1.578 0-2.968-.281-4.172-.842-1.176-.561-2.098-1.364-2.767-2.406-.642-1.043-.962-2.299-.962-3.77 0-1.604.387-2.914 1.163-3.93.802-1.016 1.911-1.778 3.329-2.286 1.443-.508 3.128-.762 5.053-.762h5.053v3.329h-5.133c-1.284 0-2.273.321-2.968.963-.669.615-1.003 1.417-1.003 2.406s.334 1.791 1.003 2.406c.695.615 1.684.922 2.968.922.775 0 1.484-.134 2.125-.401.669-.294 1.217-.775 1.645-1.444.454-.695.708-1.631.762-2.807l1.363 1.564c-.133 1.524-.508 2.807-1.123 3.85-.588 1.043-1.417 1.845-2.486 2.406-1.043.535-2.326.802-3.85.802zm-22.99-.561V21.232h5.695v25.067h-5.695zm-8.463-24.265V17.02h22.62v5.013h-22.62zM185.965 46.98c-2.513 0-4.465-.829-5.856-2.487-1.363-1.658-2.045-4.118-2.045-7.38V24.48h5.575v13.115c0 1.337.374 2.406 1.123 3.209.748.775 1.764 1.163 3.048 1.163s2.326-.414 3.128-1.243c.829-.829 1.244-1.952 1.244-3.369V24.48h5.574v21.818h-4.411v-9.265h.441c0 2.193-.281 4.024-.842 5.495s-1.404 2.58-2.527 3.329-2.527 1.123-4.211 1.123h-.241zm-16.659-.682l-7.299-10.187h-3.249l9.265-11.591h5.816l-8.543 10.708.12-2.807 10.187 13.877h-6.297zm-15.24 0V17.021h5.575v29.278h-5.575zm-14.111.682c-2.994 0-5.347-.628-7.058-1.885-1.685-1.283-2.567-3.048-2.647-5.294h5.013c.08.749.494 1.43 1.243 2.045s1.925.922 3.53.922c1.336 0 2.393-.241 3.168-.722.802-.481 1.203-1.136 1.203-1.965 0-.722-.307-1.297-.922-1.725-.589-.428-1.605-.709-3.048-.842l-1.926-.2c-2.433-.267-4.304-.963-5.614-2.086s-1.966-2.62-1.966-4.492c0-1.497.375-2.754 1.123-3.77s1.778-1.778 3.089-2.286c1.336-.535 2.86-.802 4.572-.802 2.673 0 4.839.588 6.497 1.765s2.527 2.901 2.607 5.174h-5.013c-.054-.749-.428-1.39-1.123-1.925s-1.698-.802-3.008-.802c-1.177 0-2.086.227-2.728.682s-.962 1.043-.962 1.765c0 .695.254 1.23.762 1.604.535.374 1.39.628 2.567.762l1.925.2c2.567.267 4.572.976 6.016 2.126 1.47 1.15 2.206 2.7 2.206 4.652 0 1.444-.401 2.7-1.204 3.77-.775 1.043-1.871 1.858-3.288 2.446s-3.089.882-5.014.882zm-18.284-.682v-6.457h-.922v-7.179c0-1.257-.308-2.193-.923-2.807s-1.564-.922-2.847-.922l-2.407.04-2.847.12-2.527.12V24.48l2.086-.16 2.366-.08 2.326-.04c2.246 0 4.104.294 5.575.882 1.497.588 2.62 1.511 3.369 2.767.775 1.257 1.163 2.901 1.163 4.933v13.516h-4.412zm-7.019.561c-1.577 0-2.967-.281-4.171-.842-1.176-.561-2.099-1.364-2.767-2.406-.642-1.043-.963-2.299-.963-3.77 0-1.604.388-2.914 1.164-3.93.802-1.016 1.911-1.778 3.328-2.286 1.444-.508 3.129-.762 5.054-.762h5.053v3.329h-5.133c-1.284 0-2.273.321-2.968.963-.669.615-1.003 1.417-1.003 2.406s.334 1.791 1.003 2.406c.695.615 1.684.922 2.968.922.775 0 1.484-.134 2.125-.401.669-.294 1.217-.775 1.645-1.444.454-.695.708-1.631.762-2.807l1.363 1.564c-.133 1.524-.508 2.807-1.123 3.85-.588 1.043-1.417 1.845-2.486 2.406-1.043.535-2.326.802-3.851.802zm-22.989-.561V21.232h5.695v25.067h-5.695zM83.2 22.034v-5.013h22.62v5.013H83.2z" fill="#24995c"/><defs><clipPath id="B"><path fill="#fff" transform="translate(-1.684 -1.685)" d="M0 0h67.368v67.368H0z"/></clipPath></defs></svg>