<?xml version="1.0" encoding="UTF-8" standalone="no"?><svg xmlns="http://www.w3.org/2000/svg" xmlns:v="https://vecta.io/nano" width="40" height="40" fill="none"><style><![CDATA[.B{fill:#28bf73}.C{fill:#1d7a4a}]]></style><mask id="A" maskUnits="userSpaceOnUse" x="0" y="0" width="40" height="40" mask-type="alpha"><circle cx="20" cy="20" r="20" fill="#d9d9d9"/></mask><g mask="url(#A)"><g clip-path="url(#B)"><path d="M40.526 36.368c0 2.316-1.789 4.158-4.053 4.158H3.526c-2.263 0-4.053-1.895-4.053-4.158V3.632c0-2.263 1.789-4.158 4.053-4.158h33c2.211 0 4 1.895 4 4.158v32.737z" class="B"/><path d="M36.474 41.053H3.526c-2.526 0-4.579-2.105-4.579-4.684V3.631c0-2.579 2.053-4.684 4.579-4.684h33c2.474 0 4.526 2.105 4.526 4.684v32.684c0 2.632-2.053 4.737-4.579 4.737zM3.526 0C1.579 0 0 1.631 0 3.631v32.684C0 38.368 1.579 40 3.526 40h33c1.947 0 3.526-1.632 3.526-3.632V3.631C40 1.631 38.421 0 36.474 0H3.526z" class="C"/><path d="M28.947 8.263a1.04 1.04 0 0 1-.737-.316c-.158-.158-.263-.368-.368-.579 0-.105-.105-.158-.21-.158l-2 .211c-.105 0-.158.105-.211.211 0 .579-.474 1.053-1.053 1.105h-.21-.105-.105c-.053 0-.053 0-.105-.053-.053 0-.053 0-.105-.053-.053 0-.053-.053-.105-.053s-.053-.053-.105-.053-.053-.053-.053-.053c-.053 0-.053-.053-.105-.053l-.053-.053-.105-.105-.053-.053c0-.053-.053-.053-.053-.105v-.053c.053-.053.053-.105.053-.158v-.053c-.053-.053-.105-.053-.158-.053L21.053 8c-.105 0-.158.105-.21.211 0 .579-.474 1.053-1.053 1.105-.158 0-.316 0-.421-.053-.263-.053-.526-.263-.684-.474a.57.57 0 0 1-.158-.368c0-.105-.105-.158-.21-.158l-2.053.158h-.053c-.053.053-.105.105-.105.158v.211.053c0 .053 0 .105-.053.105 0 0 0 .053-.053.053 0 .053-.053.053-.053.105l-.053.053c0 .053-.053.053-.053.105l-.053.053s-.053.053-.105.053l-.053.053c-.053 0-.053.053-.105.053s-.053.053-.105.053-.053.053-.105.053-.053 0-.105.053c-.053 0-.105.053-.21.053-.579.053-1.105-.316-1.263-.895 0-.105-.105-.158-.211-.158l-1.947.316c-.105 0-.158.105-.21.211 0 .263-.105.474-.263.684s-.368.368-.632.421c-.105 0-.158.105-.158.21l1.263 11.737 4.684-.474 9.368-1 4.684-.474-1.263-11.789c.053-.105 0-.211-.105-.211z" fill="#fff"/><path d="M9.474 12.737v14a1.1 1.1 0 0 0 .421.842l8.842 6.316c.737.526 1.737.526 2.474 0l8.842-6.316a1.1 1.1 0 0 0 .421-.842v-14c0-.316-.263-.526-.526-.526H10a.57.57 0 0 0-.526.526z" class="B"/><path d="M20 34.842c-.526 0-1.105-.158-1.526-.474l-8.842-6.316c-.421-.316-.684-.79-.684-1.263v-14c0-.579.474-1.053 1.053-1.053h20c.579 0 1.053.474 1.053 1.053v14a1.48 1.48 0 0 1-.684 1.263l-8.842 6.316c-.421.316-1 .474-1.526.474zM10 12.737v14c0 .158.105.316.211.421l8.842 6.316a1.58 1.58 0 0 0 1.895 0l8.842-6.316c.158-.105.21-.263.21-.421v-14H10z" class="C"/><path d="M9.474 16.158l2 .421-2-.421z" class="B"/><path d="M11.474 17.105h-.105l-1.947-.421c-.263-.053-.474-.316-.421-.632.053-.263.316-.474.632-.421.053 0 .842.158 2 .421.263.053.474.368.368.632s-.316.421-.526.421z" class="C"/><path d="M13.421 17.106l2.105.684-2.105-.684z" class="B"/><path d="M15.526 18.263c-.053 0-.105 0-.158-.053l-2.105-.632c-.263-.105-.421-.368-.368-.632s.368-.421.632-.368l2.158.684c.263.105.421.421.316.684-.053.211-.263.316-.474.316z" class="C"/><path d="M30.527 16.158l-2 .421 2-.421z" class="B"/><path d="M28.526 17.105a.51.51 0 0 1-.526-.421c-.053-.263.105-.579.368-.632l2-.421a.58.58 0 0 1 .632.421.58.58 0 0 1-.421.632l-1.947.421h-.105z" class="C"/><path d="M26.579 17.106l-2.105.684 2.105-.684z" class="B"/><path d="M24.474 18.263c-.21 0-.421-.158-.474-.369-.105-.263.053-.579.316-.684.684-.263 1.421-.474 2.158-.684.263-.105.579.105.632.368.105.263-.105.579-.368.632l-2.105.632c-.053.105-.105.105-.158.105z" class="C"/><path d="M20 19.948c-.684-.526-1.526-1-2.421-1.368L20 19.948z" class="B"/><path d="M20 20.474c-.105 0-.21-.053-.316-.105-.632-.474-1.368-.895-2.316-1.316-.263-.105-.368-.421-.263-.684s.421-.368.684-.263c1 .474 1.842.947 2.526 1.474a.57.57 0 0 1 .105.737c-.105.105-.263.158-.421.158z" class="C"/><path d="M21.368 19.106a9.82 9.82 0 0 1 1.053-.526l.421-.21" class="B"/><path d="M21.368 19.632c-.21 0-.368-.105-.474-.263-.158-.263-.053-.579.211-.737.316-.211.737-.368 1.105-.526l.421-.211c.263-.105.579 0 .684.263s0 .579-.263.684l-.421.211c-.368.158-.737.316-1.053.526-.053.053-.158.053-.211.053z" class="C"/><path d="M17.158 18.369c1.053.474 2.053 1 2.842 1.579l-2.842-1.579z" class="B"/><path d="M20 20.474c-.105 0-.211-.053-.316-.105-.684-.526-1.632-1.053-2.737-1.526-.263-.105-.368-.421-.263-.684s.421-.368.684-.263c1.21.526 2.21 1.053 2.947 1.632a.57.57 0 0 1 .105.737c-.105.158-.263.21-.421.21z" class="C"/><path d="M18.79 21.158c-.368.474-.579 1.053-.579 1.632 0 1 .79 1.789 1.79 1.789s1.789-.789 1.789-1.789c0-1.053-.684-2-1.789-2.79" class="B"/><path d="M20 25.053a2.34 2.34 0 0 1-2.316-2.316c0-.684.211-1.316.632-1.895.158-.263.474-.316.737-.105.263.158.316.474.105.737-.316.421-.474.842-.474 1.316 0 .684.579 1.263 1.263 1.263a1.28 1.28 0 0 0 1.263-1.263c0-.789-.526-1.631-1.579-2.368a.57.57 0 0 1-.105-.737.57.57 0 0 1 .737-.105c1.316 1 2 2.105 2 3.21.053 1.263-1 2.263-2.263 2.263z" class="C"/></g></g><defs><clipPath id="B"><path fill="#fff" transform="translate(-1.052 -1.053)" d="M0 0h42.105v42.105H0z"/></clipPath></defs></svg>